<svg xmlns="http://www.w3.org/2000/svg" width="340" height="200" viewBox="0 0 340 200"><style>* {
          font-family: 'Segoe UI', Ubuntu, "Helvetica Neue", Sans-Serif
        }</style><rect x="1" y="1" rx="5" ry="5" height="99%" width="99.41176470588235%" stroke="#eceff4" stroke-width="1" fill="#2e3440" stroke-opacity="1"></rect><text x="30" y="40" style="font-size: 22px; fill: #eceff4;">Top Languages by Commit</text><g transform="translate(0,40)"><g transform="translate(40,0)"><rect y="18" width="14" height="14" fill="#00B4AB" stroke="#2e3440" style="stroke-width: 1px;"></rect><rect y="43.2" width="14" height="14" fill="#f1e05a" stroke="#2e3440" style="stroke-width: 1px;"></rect><rect y="68.4" width="14" height="14" fill="#f34b7d" stroke="#2e3440" style="stroke-width: 1px;"></rect><rect y="93.60000000000002" width="14" height="14" fill="#00ADD8" stroke="#2e3440" style="stroke-width: 1px;"></rect><rect y="118.80000000000001" width="14" height="14" fill="#3178c6" stroke="#2e3440" style="stroke-width: 1px;"></rect><text x="16.8" y="30" style="fill: #e5e9f0; font-size: 14px;">Dart</text><text x="16.8" y="55.2" style="fill: #e5e9f0; font-size: 14px;">JavaScript</text><text x="16.8" y="80.4" style="fill: #e5e9f0; font-size: 14px;">C++</text><text x="16.8" y="105.60000000000002" style="fill: #e5e9f0; font-size: 14px;">Go</text><text x="16.8" y="130.8" style="fill: #e5e9f0; font-size: 14px;">TypeScript</text></g><g transform="translate( 230, 80 )"><g class="arc"><path d="M3.67394039744206e-15,-60A60,60,0,1,1,-45.431852928477845,-39.19115639382384L-26.50191420827874,-22.86150789639724A35,35,0,1,0,2.1431318985078682e-15,-35Z" style="fill: #00B4AB; stroke-width: 2px;" stroke="#2e3440"></path></g><g class="arc"><path d="M-45.431852928477845,-39.19115639382384A60,60,0,0,1,-22.546170960698976,-55.602789273659056L-13.151933060407735,-32.43496040963445A35,35,0,0,0,-26.50191420827874,-22.86150789639724Z" style="fill: #f1e05a; stroke-width: 2px;" stroke="#2e3440"></path></g><g class="arc"><path d="M-22.546170960698976,-55.602789273659056A60,60,0,0,1,-9.786015315590966,-59.196570037824145L-5.70850893409473,-34.53133252206408A35,35,0,0,0,-13.151933060407735,-32.43496040963445Z" style="fill: #f34b7d; stroke-width: 2px;" stroke="#2e3440"></path></g><g class="arc"><path d="M-9.786015315590966,-59.196570037824145A60,60,0,0,1,-2.6558699132382855,-59.941190804020195L-1.549257449389,-34.965694635678446A35,35,0,0,0,-5.70850893409473,-34.53133252206408Z" style="fill: #00ADD8; stroke-width: 2px;" stroke="#2e3440"></path></g><g class="arc"><path d="M-2.6558699132382855,-59.941190804020195A60,60,0,0,1,4.226888398968133e-14,-60L2.4656848993980778e-14,-35A35,35,0,0,0,-1.549257449389,-34.965694635678446Z" style="fill: #3178c6; stroke-width: 2px;" stroke="#2e3440"></path></g></g></g></svg>